<?xml version="1.0" standalone="no"?>
<!DOCTYPE svg PUBLIC "-//W3C//DTD SVG 20010904//EN"
 "http://www.w3.org/TR/2001/REC-SVG-20010904/DTD/svg10.dtd">
<svg version="1.0" xmlns="http://www.w3.org/2000/svg"
 width="2560.000000pt" height="2560.000000pt" viewBox="0 0 2560.000000 2560.000000"
 preserveAspectRatio="xMidYMid meet">
<metadata>
Created by potrace 1.16, written by Peter Selinger 2001-2019
</metadata>
<g transform="translate(0.000000,2560.000000) scale(0.100000,-0.100000)"
fill="#000000" stroke="none">
<path d="M7700 18983 l0 -180 108 -7 c174 -11 369 -36 496 -62 458 -97 630
-290 701 -789 39 -280 38 -217 42 -4880 4 -4585 1 -5046 -32 -5320 -41 -339
-105 -521 -229 -652 -35 -38 -92 -85 -127 -106 -148 -87 -473 -157 -861 -183
l-98 -7 0 -180 0 -180 303 7 c408 9 1580 23 3092 37 2047 19 5073 3 6208 -32
202 -6 369 -10 371 -8 2 2 -5 81 -15 174 -68 636 -95 1197 -105 2240 -8 731 6
1278 42 1743 l7 82 -207 0 c-113 0 -206 -2 -206 -5 0 -27 -101 -547 -140 -721
-238 -1058 -604 -1848 -1089 -2348 -187 -193 -337 -309 -553 -427 -332 -181
-711 -287 -1143 -319 -232 -18 -1456 -8 -1600 13 -305 43 -415 86 -535 206
-107 107 -155 232 -196 506 -17 113 -18 271 -21 2593 l-3 2472 374 0 c205 0
420 -5 477 -11 208 -21 449 -83 612 -158 333 -153 654 -463 864 -834 188 -332
351 -830 430 -1312 l8 -50 199 -3 c110 -1 203 1 207 5 4 5 -4 157 -16 338 -64
913 -73 1163 -86 2320 -13 1213 -7 1592 41 2270 5 77 10 148 10 158 0 16 -16
17 -204 17 -186 0 -205 -2 -210 -17 -3 -10 -15 -61 -26 -113 -51 -229 -155
-569 -242 -790 -101 -258 -282 -584 -425 -769 -158 -204 -399 -404 -619 -514
-175 -88 -418 -149 -660 -167 -76 -5 -273 -10 -437 -10 l-298 0 4 2443 c3
2253 4 2451 20 2557 50 330 119 468 290 581 100 65 281 114 522 141 164 18
1308 18 1480 0 390 -40 699 -124 991 -267 320 -156 551 -351 774 -650 379
-508 640 -1256 804 -2305 15 -91 29 -180 32 -197 l5 -33 204 0 c189 0 205 1
205 18 0 9 -7 116 -15 237 -36 544 -43 943 -25 1570 21 758 53 1339 104 1903
8 81 12 148 11 150 -2 2 -140 -2 -306 -8 -743 -27 -1221 -32 -3219 -37 -2369
-6 -4480 10 -5822 43 l-268 7 0 -180z"/>
</g>
</svg>
